<svg width="147.000000" height="327.000000" viewBox="0 0 147 327" fill="none" xmlns="http://www.w3.org/2000/svg" xmlns:xlink="http://www.w3.org/1999/xlink">
	<desc>
			Created with Pixso.
	</desc>
	<defs>
		<clipPath id="clip0_229">
			<rect id="Frame" rx="-0.500000" width="146.000000" height="326.000000" transform="translate(0.500000 0.500000)" fill="white" fill-opacity="0"/>
		</clipPath>
	</defs>
	<g clip-path="url(#clip0_229)">
		<path id="Vector" d="M17.16 208.46C16.95 208.2 16.84 207.88 16.94 207.51C16.95 207.48 16.96 207.46 16.96 207.44C16.88 206.66 16.91 205.86 17.12 205.07C17.42 203.91 18.02 202.79 18.48 201.7C19.68 198.82 20.86 195.94 22.07 193.07C24.13 188.2 26.31 183.39 28.52 178.59C29.89 175.62 31.22 172.58 32.74 169.66C31.75 169.68 30.77 169.7 29.79 169.71C25.93 173.2 21.72 177.05 18.44 179.96C15.59 182.5 12.68 185.12 10.95 188.52C9.78 190.83 9.21 193.38 8.73 195.92C7.78 200.97 7.17 206.08 6.86 211.2C8.2 211.2 9.55 211.2 10.9 211.2C11.42 211.2 11.81 211.55 11.98 212.02C12.24 212.72 12.45 213.44 12.65 214.16C12.99 215.44 13.26 216.75 13.39 218.07C13.5 219.34 13.48 220.72 12.88 221.88C12.1 223.39 10.19 223.75 8.64 223.93C7.95 224 7.14 224 6.43 223.8C7.19 226.26 10.49 227.55 13.26 227.02C18.23 226.05 17.42 224.85 21.73 215.24C21.85 214.99 21.96 214.7 22.07 214.4C21.04 213.83 20.1 213.12 19.31 212.29C18.29 211.2 17.52 209.88 17.16 208.46Z" fill="#000000" fill-opacity="1.000000" fill-rule="nonzero"/>
		<path id="Vector" d="M9.63 167.12C17.18 167.47 24.7 167.58 32.25 167.33C32.98 167.31 33.71 167.31 34.44 167.29C34.51 167.28 34.58 167.27 34.65 167.28C34.67 167.28 34.68 167.27 34.69 167.27C34.89 167.27 35.08 167.27 35.27 167.28C46.66 167 58.05 167.2 69.42 167.58C70.44 165.21 71.44 162.82 72.45 160.44C75.71 152.78 79.26 145.21 83.26 137.9C84.85 134.98 86.3 132.01 89.29 130.3C92.31 128.6 95.98 128.42 99.27 129.46C102.37 130.43 105.26 132.42 107.01 135.19C109.05 138.41 108.38 141.7 107.68 145.23C106.29 152.25 104.39 159.22 102.41 166.12C103.59 166.5 104.89 166.57 106.11 166.68C108.33 166.88 110.56 167.01 112.78 167.11C120.33 167.46 127.85 167.57 135.4 167.32C136.46 167.29 137.53 167.28 138.6 167.26C138.68 167.16 138.77 167.06 138.87 166.98C143.2 163.14 145.51 157.97 146.71 152.46L146.71 119.2C146.26 115.18 145.76 111.18 145.3 107.17C144 96.02 143.72 85.03 144.92 73.84C145.35 69.84 146 65.9 146.71 61.96L146.71 0L44.11 0C37.87 0.45 31.64 0.99 25.4 1.45C25.21 1.55 25.02 1.63 24.8 1.69C17.95 3.58 10.46 2.1 3.9 4.07C1.81 7.87 0.63 12.23 0 16.64L0 166.32C0.96 166.53 1.98 166.59 2.95 166.69C5.17 166.89 7.41 167.01 9.63 167.12ZM100.55 86.41C100.58 86.42 100.85 86.49 100.88 86.49C101.05 86.56 101.24 86.62 101.4 86.7C101.41 86.7 101.69 86.85 101.72 86.86C101.87 86.94 102.01 87.04 102.15 87.14C102.92 87.67 103.59 88.2 104.1 88.89C104.35 89.21 104.52 89.54 104.67 89.93C104.7 90 104.71 90.03 104.73 90.04C104.73 90.07 104.74 90.11 104.76 90.18C104.8 90.38 104.84 90.57 104.89 90.76C105.03 91.4 105.17 92.05 105.36 92.66C105.35 93.09 105.33 93.51 105.28 93.93C105.11 95.28 104.76 96.54 104.25 97.73C104.83 97.6 105.41 97.54 105.99 97.53C106.25 97.7 106.54 97.83 106.85 97.9C107.99 98.17 109.2 98.97 110.16 99.73C110.74 100.18 111.45 100.81 111.94 101.4C112.34 102.69 112.18 104.1 111.64 105.37C111.43 105.66 111.2 105.94 110.95 106.21C110.64 106.56 110.44 106.75 109.99 107.15C109.55 107.55 109.09 107.91 108.61 108.28C108.18 108.6 107.74 108.91 107.29 109.21C107.1 109.34 106.89 109.47 106.69 109.6C106.59 109.66 106.23 109.88 106.17 109.92C103.76 111.33 101.16 112.06 98.47 112.79C96.61 113.29 94.78 113.98 92.86 114.26C90.96 114.54 89.1 114.26 87.27 114.96C87.24 114.97 87.21 114.99 87.18 115C86.96 115 86.76 115.01 86.54 115C85.82 115.54 84.49 115.12 84.63 113.97C85 111 85.65 108.07 86.58 105.22C86.84 104.66 87.11 104.12 87.38 103.57C88.4 101.46 89.17 99.29 90.13 97.16C91.23 94.72 93.12 92.78 94.72 90.68C94.96 90.36 95.07 90.02 95.1 89.7C95.24 89.53 95.38 89.38 95.53 89.21C95.8 89.08 96.06 88.89 96.27 88.58C96.42 88.37 96.59 88.18 96.76 87.97C97.15 87.63 97.57 87.31 98.01 87.05C98.81 86.59 99.67 86.38 100.5 86.4C100.53 86.41 100.54 86.41 100.55 86.41ZM44.96 35.3C45.3 34.66 45.53 33.91 45.51 33.01C45.5 32.38 45.54 31.74 45.57 31.11C45.85 29.85 46.2 28.63 46.69 27.47C47.57 25.4 48.94 23.77 50.61 22.59C50.64 22.58 50.66 22.56 50.7 22.53C50.78 22.51 51.4 22.26 51.47 22.23C51.9 22.09 52.34 21.98 52.78 21.88C52.81 21.87 53.56 21.75 53.65 21.73C54.06 21.69 54.48 21.66 54.89 21.65C57.19 21.59 59.24 21.65 61.26 22.23C62.22 22.51 63.02 22.9 63.88 23.43C64.06 23.53 64.12 23.56 64.16 23.59C64.21 23.63 64.28 23.69 64.42 23.81C64.8 24.12 65.16 24.44 65.52 24.77C66.71 25.82 67.92 26.87 69.2 27.79C69.8 28.63 70.37 29.49 70.87 30.37C72.51 33.25 73.63 36.23 74.38 39.29C75.31 38.2 76.35 37.23 77.47 36.37C78.21 36.33 78.96 36.15 79.68 35.85C82.29 34.73 85.83 34.56 88.79 34.62C90.58 34.66 92.87 34.88 94.69 35.3C97.34 37.25 99.09 40.22 99.87 43.48C99.86 44.36 99.83 45.23 99.75 46.11C99.65 47.25 99.52 47.93 99.23 49.36C98.94 50.76 98.57 52.16 98.17 53.54C97.81 54.8 97.4 56.04 96.96 57.28C96.77 57.82 96.56 58.37 96.36 58.91C96.26 59.17 95.88 60.12 95.81 60.28C93.14 66.53 89.12 71.73 84.94 77.04C82.03 80.74 79.46 84.72 76.12 88.06C72.82 91.35 68.78 93.49 66.22 97.53C66.18 97.6 66.15 97.68 66.11 97.75C65.69 98.05 65.3 98.38 64.88 98.67C64.27 100.77 61.05 101.88 59.66 99.44C56.07 93.1 53.09 86.43 50.76 79.54C50.47 78.07 50.2 76.6 49.93 75.15C48.88 69.57 47.22 64.18 46 58.64C44.62 52.3 45.49 45.77 45.53 39.34C45.54 38.35 45.27 37.54 44.86 36.88C44.86 36.35 44.91 35.82 44.96 35.3Z" fill="#000000" fill-opacity="1.000000" fill-rule="nonzero"/>
		<path id="Vector" d="M40.28 201.63C39.4 200.38 38.83 198.91 38.83 197.36C38.83 196.18 39.2 195.14 39.64 194.08C40.77 191.37 41.9 188.67 43.03 185.96C45.32 180.47 47.66 175.04 50.22 169.72C45.92 169.66 41.61 169.61 37.3 169.55C36.65 169.56 35.99 169.59 35.34 169.6C33.36 173.19 31.73 177 30.02 180.72C28.09 184.92 26.2 189.14 24.39 193.4C26.08 193.85 27.77 194.32 29.45 194.77C30.04 194.93 30.4 195.57 30.24 196.15C30.02 196.92 29.79 197.69 29.53 198.45C28.59 201.28 27.57 204.33 25.84 206.79C24.94 208.07 23.98 208.84 22.41 209.13C21.61 209.28 20.74 209.36 19.88 209.32C20.94 211.17 23 212.54 24.92 213.15C26.56 213.67 28.37 213.8 29.97 213.08C31.56 212.37 32.79 211 33.9 209.71C36.12 207.09 38.15 204.33 40.28 201.63Z" fill="#000000" fill-opacity="1.000000" fill-rule="nonzero"/>
		<path id="Vector" d="M52.76 169.47C51.52 171.94 50.32 174.44 49.2 176.96C47.69 180.36 46.34 183.83 44.91 187.26C46.45 187.74 48.01 188.21 49.56 188.69C50.2 188.88 50.44 189.46 50.34 190.08C50.25 190.69 50.13 191.3 49.99 191.91C49.44 194.36 48.65 196.98 47.13 199.01C46.35 200.06 45.34 201 44.03 201.32C43.69 201.4 43.37 201.43 43.05 201.44C43.74 202.14 44.57 202.73 45.49 203.18C51.5 197.28 56.99 190.9 61.45 183.6C64.16 179.16 66.39 174.52 68.46 169.81C63.22 169.63 57.99 169.52 52.76 169.47Z" fill="#000000" fill-opacity="1.000000" fill-rule="nonzero"/>
		<path id="Vector" d="M110.75 169.26C107.88 169.1 104.54 169.2 101.78 168.29C101.23 170.18 100.69 172.07 100.14 173.96C98.77 178.67 97.13 183.29 95.31 187.84C94.47 189.94 93.6 192.02 92.72 194.09C91.67 196.59 89.83 198.89 88.34 201.15C81.57 211.43 75.54 222.16 69.64 232.95C68.94 234.23 67 233.09 67.7 231.82C67.86 231.52 68.03 231.21 68.19 230.91C70.98 225.83 73.81 220.76 76.71 215.74C80.75 208.7 85.2 201.97 89.57 195.13C90.87 193.1 91.69 190.81 92.59 188.58C93.44 186.51 94.25 184.43 95.03 182.33C96.71 177.71 98.06 173.02 99.35 168.29C100.61 163.72 101.93 159.16 103.15 154.58C104.34 150.07 105.61 145.46 106.16 140.82C106.96 134.25 98.39 129.97 92.83 131.3C91.13 131.71 89.4 132.61 88.24 133.94C87.32 135 86.66 136.41 85.97 137.63C84.09 140.97 82.37 144.39 80.69 147.82C77.11 155.15 74.11 162.66 70.86 170.13C67.64 177.56 63.79 184.71 59.02 191.26C49.91 203.73 37.78 213.4 25.94 223.13C25.67 223.36 25.37 223.42 25.09 223.4C16.38 232.04 12.07 238.89 10.67 248.82C7.83 269.02 7.6 271.69 7.42 327L68.19 317.58C67.14 266.6 69.08 278.77 84.76 266.04C90.02 261.77 121.07 241.65 124.55 235.83C129.49 227.57 129.44 226.12 129.2 216.5L125.17 169.75C124.73 169.75 124.28 169.75 123.84 169.74C119.47 169.64 115.11 169.51 110.75 169.26ZM71.09 186.62C71.37 186.1 72.14 185.89 72.64 186.21C73.37 186.68 74.13 187.1 74.91 187.48C75.07 187.55 75.22 187.62 75.38 187.69C75.4 187.7 75.42 187.7 75.43 187.71C75.51 187.75 75.61 187.79 75.7 187.82C76.03 187.95 76.36 188.06 76.71 188.14C76.86 188.19 77.01 188.22 77.17 188.24C77.18 188.24 77.18 188.24 77.19 188.24C77.27 188.24 77.35 188.25 77.44 188.26C77.5 188.26 77.74 188.23 77.81 188.24C77.88 188.23 77.94 188.21 78.02 188.19C78.62 187.98 79.23 188.42 79.4 188.97C79.59 189.57 79.18 190.16 78.62 190.35C77.1 190.87 75.34 190.14 73.97 189.52C73.12 189.13 72.28 188.68 71.5 188.17C70.96 187.81 70.79 187.19 71.09 186.62ZM98.51 134.25L100.05 134.78C100.65 134.98 101.18 135.34 101.77 135.74C103.09 136.62 103.82 138.02 103.89 139.79C103.92 140.81 103.72 141.81 103.52 142.76L103.45 143.14C103.35 143.62 103.19 144.09 103.02 144.57L102.49 146.18C102.2 146.86 100.73 151.83 99.99 153.13C99.73 153.59 99.24 154.44 98.07 154.06C97.95 154.01 97.81 153.96 97.65 153.89C93.64 152.12 89.73 150.35 86.02 148.16C84.88 147.5 84.69 146.88 85.24 145.65C85.92 144.17 86.69 142.49 87.42 140.8C88.33 138.73 89.57 136.97 91.13 135.54C92.75 134.06 94.34 133.44 95.98 133.64C96.9 133.75 97.78 134.01 98.51 134.25ZM69.13 192.05C69.37 192.29 69.64 192.5 69.9 192.72C69.93 192.74 69.95 192.76 69.98 192.78C69.98 192.78 70.11 192.88 70.14 192.9C70.31 193.02 70.48 193.13 70.64 193.25C71.01 193.51 71.39 193.75 71.79 193.96C73.67 195.01 75.86 195.65 78.08 195.21C78.68 195.09 79.29 195.37 79.47 195.99C79.62 196.55 79.27 197.26 78.68 197.37C74.7 198.16 70.39 196.45 67.55 193.64C66.5 192.62 68.1 191.02 69.13 192.05Z" fill="#000000" fill-opacity="1.000000" fill-rule="nonzero"/>
		<path id="Vector" d="M90.17 140.45C89.77 141.32 89.35 142.17 88.86 143.16L88.11 144.71C87.84 145.25 87.59 145.8 87.34 146.35C89.31 147.61 95.42 150.69 98.38 151.91L99.47 148.57C99.86 147.39 100.24 146.22 100.6 145.04L100.93 143.98C101.3 142.84 101.66 141.66 101.91 140.49C102.18 139.2 101.82 138.16 100.87 137.48C100.15 136.97 99.37 136.58 98.45 136.28C97.97 136.12 97.44 135.99 96.9 135.88C95.27 135.58 93.99 135.91 92.85 136.92C91.69 137.9 90.8 139.09 90.17 140.45Z" fill="#000000" fill-opacity="1.000000" fill-rule="nonzero"/>
		<path id="Vector" d="M19.59 207.02C20.12 207.09 20.67 207.08 21.19 207.03C21.47 207.01 21.75 206.96 22.03 206.91C22.24 206.86 22.44 206.8 22.65 206.75C22.64 206.75 22.73 206.73 22.78 206.71C22.85 206.68 22.97 206.62 23 206.59C23.03 206.57 23.05 206.56 23.08 206.54C23.08 206.54 23.08 206.54 23.1 206.53C23.27 206.38 23.43 206.21 23.59 206.04C23.78 205.82 23.81 205.76 24.03 205.45C24.21 205.18 24.37 204.91 24.53 204.63C25.22 203.43 25.78 202.15 26.28 200.86C26.82 199.48 27.29 198.06 27.73 196.63C26.01 196.17 24.28 195.7 22.56 195.24C22.53 195.23 22.52 195.22 22.48 195.21L18.42 206.74C18.78 206.88 19.21 206.98 19.59 207.02Z" fill="#000000" fill-opacity="1.000000" fill-rule="nonzero"/>
		<path id="Vector" d="M6.83 221.51C6.81 221.51 6.79 221.5 6.79 221.51C6.79 221.51 6.83 221.52 6.87 221.53C6.87 221.53 6.87 221.53 6.86 221.53C6.85 221.52 6.84 221.52 6.83 221.51Z" fill="#000000" fill-opacity="1.000000" fill-rule="nonzero"/>
		<path id="Vector" d="M6.89 221.54C6.88 221.54 6.87 221.54 6.86 221.53C6.99 221.61 6.94 221.58 6.89 221.54Z" fill="#000000" fill-opacity="1.000000" fill-rule="nonzero"/>
		<path id="Vector" d="M6.83 221.51C6.85 221.51 6.87 221.52 6.89 221.53C7.04 221.58 7.31 221.65 7.33 221.66C7.39 221.67 7.64 221.69 7.35 221.67C7.42 221.67 7.47 221.68 7.53 221.69C7.71 221.71 7.88 221.72 8.05 221.71C8.51 221.69 8.78 221.65 9.23 221.56C9.48 221.5 9.73 221.44 9.97 221.36C10.12 221.32 10.27 221.27 10.42 221.21C10.46 221.2 10.54 221.16 10.58 221.15C10.63 221.13 10.66 221.1 10.7 221.08C10.72 221.06 10.75 221.04 10.77 221.03C10.81 220.99 10.82 220.99 10.83 220.98C10.84 220.96 10.83 220.95 10.85 220.92C10.9 220.85 10.94 220.76 10.99 220.68C11 220.63 11.02 220.59 11.04 220.54C11.07 220.42 11.1 220.3 11.13 220.18C11.14 220.14 11.16 219.97 11.19 219.9C11.19 219.83 11.21 219.66 11.21 219.6C11.22 219.34 11.23 219.1 11.22 218.84C11.21 218.52 11.19 218.21 11.15 217.9C11.14 217.83 11.14 217.76 11.13 217.69C11.13 217.68 11.12 217.62 11.12 217.58C11.11 217.54 11.08 217.29 11.07 217.23C10.85 215.94 10.51 214.68 10.11 213.43C9.02 213.43 7.92 213.43 6.83 213.43C6.8 213.43 6.79 213.42 6.77 213.42L6.39 221.35C6.49 221.37 6.66 221.42 6.83 221.51Z" fill="#000000" fill-opacity="1.000000" fill-rule="nonzero"/>
		<path id="Vector" d="M6.86 221.53C6.87 221.54 6.88 221.54 6.89 221.54C6.87 221.53 6.85 221.52 6.83 221.52C6.84 221.52 6.85 221.52 6.86 221.53Z" fill="#000000" fill-opacity="1.000000" fill-rule="nonzero"/>
		<path id="Vector" d="M43.1 189.07L40.61 198.26C40.71 198.29 40.8 198.31 40.89 198.37C41.07 198.5 41.27 198.62 41.47 198.74C41.53 198.77 41.82 198.92 41.88 198.95C42.15 199.06 42.44 199.13 42.73 199.19C42.79 199.19 42.92 199.2 42.97 199.2C43.07 199.2 43.4 199.14 43.31 199.18C43.4 199.16 43.49 199.14 43.59 199.11C43.66 199.09 43.74 199.06 43.8 199.04C44 198.92 44.2 198.81 44.39 198.67C44.45 198.63 44.55 198.53 44.6 198.51C44.69 198.42 44.79 198.33 44.89 198.22C44.98 198.13 45.07 198.02 45.16 197.91C45.21 197.86 45.23 197.84 45.24 197.82C45.25 197.81 45.26 197.79 45.3 197.73C45.48 197.48 45.64 197.23 45.79 196.98C45.94 196.71 46.09 196.44 46.23 196.17C46.29 196.03 46.37 195.89 46.43 195.75C46.45 195.7 46.53 195.53 46.56 195.46C46.58 195.41 46.65 195.26 46.65 195.24C46.67 195.18 46.69 195.12 46.71 195.07C46.76 194.92 46.82 194.78 46.87 194.63C46.97 194.37 47.05 194.1 47.14 193.84C47.48 192.77 47.75 191.66 47.97 190.56C46.34 190.05 44.71 189.56 43.1 189.07Z" fill="#000000" fill-opacity="1.000000" fill-rule="nonzero"/>
	</g>
</svg>
