<svg width="92.400421" height="54.904297" viewBox="0 0 92.4004 54.9043" fill="none" xmlns="http://www.w3.org/2000/svg" xmlns:xlink="http://www.w3.org/1999/xlink">
	<defs/>
	<path id="Vector" d="M43.14 54.02L45.64 53.72L45.64 15.94C45.64 8.74 47.26 5.58 51 0.14L51 0L38.07 0L38.07 0.14C41.96 5.65 43.43 8.67 43.51 16.09L43.65 34.17L16.46 0L0.07 0L0.07 0.14C3.52 4.11 5.07 6.61 5.43 11.75L5.43 37.85C5.43 45.2 3.89 48.21 0 53.65L0 53.8L13.23 53.8L13.23 53.65C9.26 48.21 7.64 45.05 7.64 37.85L7.35 9.33L43.14 54.02ZM72.62 54.9C83.43 54.9 92.4 46.15 92.4 35.94C92.4 25.72 83.43 16.83 72.62 16.83C61.82 16.83 52.85 25.72 52.85 35.94C52.85 46.15 61.82 54.9 72.62 54.9ZM72.62 53.5C67.41 53.5 65.05 46.37 65.05 35.94C65.05 25.5 67.33 18.22 72.62 18.22C77.84 18.22 80.19 25.5 80.19 35.94C80.19 46.37 77.84 53.5 72.62 53.5Z" fill="#FFFFFF" fill-opacity="1.000000" fill-rule="nonzero"/>
</svg>
