<svg width="84.854073" height="158.000000" viewBox="0 0 84.8541 158" fill="none" xmlns="http://www.w3.org/2000/svg" xmlns:xlink="http://www.w3.org/1999/xlink">
	<defs/>
	<path id="Vector" d="M68.97 158C59.5 158 27.21 156.13 24.71 155.45C24.56 155.02 24.4 154.59 24.23 154.15C24.23 154.15 22.83 150.47 22.55 149.72L21.57 147.1C21 145.54 20.4 143.92 19.79 142.35C19.4 141.35 18.98 140.35 18.57 139.37C18.36 138.88 17.77 137.47 17.77 137.47C17.52 136.89 17.28 136.3 17.07 135.72C16.69 134.71 16.32 133.69 15.95 132.67C15.24 130.72 14.5 128.71 13.72 126.74C12.91 124.7 12.19 122.6 11.49 120.57C11.07 119.34 10.63 118.08 10.18 116.83C9.81 115.79 9.36 114.75 8.92 113.75C8.65 113.12 8.38 112.48 8.12 111.84C6.28 107.33 4.74 102.63 3.53 97.89C2.86 95.27 2.49 92.86 2.4 90.52C2.35 89.15 2.31 87.77 2.28 86.39L2.27 86.15C2.22 84.44 2.17 82.69 2.11 80.98C1.98 77.72 1.83 74.79 1.65 72.04C1.58 71.1 1.47 70.14 1.36 69.21C1.28 68.54 1.2 67.91 1.13 67.27C1.04 66.27 0.97 65.25 0.9 64.27L0.68 61.29C0.54 59.6 0.42 57.88 0.33 56.2C0.16 52.68 0.06 49.57 0.01 46.72C-0.03 44.52 0 42.13 0.1 39.41C0.15 38.06 0.24 36.69 0.34 35.37C0.4 34.63 0.45 33.89 0.5 33.15C0.52 32.76 0.53 32.36 0.55 31.96C0.57 31.44 0.59 30.99 0.61 30.55C0.63 30.24 0.68 29.93 0.71 29.64C0.74 29.41 0.77 29.18 0.79 28.96C0.9 27.83 1.01 26.7 1.12 25.58C1.25 24.12 1.59 22.97 2.19 21.96C2.71 21.06 3.32 20.57 4.15 20.36C4.78 20.21 5.37 20.13 5.91 20.13C6.77 20.13 7.55 20.33 8.22 20.72C9.57 21.52 10.44 22.6 10.8 23.95L11.05 24.83C11.27 25.6 11.49 26.37 11.61 27.13C11.87 28.72 12 30.14 12.04 31.45C12.06 32.64 12.24 33.83 12.41 34.96C12.48 35.37 12.54 35.77 12.59 36.18C12.69 36.9 12.77 37.62 12.86 38.34C12.96 39.28 13.08 40.26 13.22 41.21C13.44 42.68 13.7 44.16 13.95 45.6L14.32 47.74C14.54 48.98 14.75 50.26 15 51.51C15.31 53.14 15.67 54.86 16.13 56.95C16.18 57.17 16.15 57.31 16.01 57.5C15.14 58.74 14.6 60.06 14.4 61.46C14.17 63.08 14.16 64.78 14.35 66.64L14.44 67.58C14.54 68.62 14.65 69.7 14.84 70.75C15.09 72.03 15.37 73.33 15.66 74.58C15.92 75.74 16.17 76.84 16.38 77.93C16.86 80.33 17.6 82.73 18.31 85.04C18.58 85.91 18.84 86.76 19.09 87.62C19.59 89.33 20.04 90.71 20.52 91.95C20.79 92.64 21.15 93.31 21.51 93.96C21.64 94.18 21.76 94.41 21.88 94.63C22.51 95.82 23.32 97.21 24.55 98.46C25.94 99.87 27.74 100.75 29.89 101.04C30.34 101.11 30.8 101.14 31.25 101.14C32.36 101.14 33.46 100.96 34.53 100.59C35.7 100.19 36.85 99.72 37.94 99.25C38.16 99.16 38.25 99.15 38.3 99.15C38.36 99.15 38.43 99.17 38.51 99.2C39.45 99.56 40.53 99.78 41.91 99.9C42.24 99.93 42.58 99.94 42.9 99.94C44.82 99.94 46.62 99.45 48.43 98.44C50.53 97.27 51.85 95.7 52.5 93.65C52.64 93.18 52.8 92.72 52.96 92.25C53.16 91.63 53.34 91.1 53.51 90.58C53.54 90.47 53.57 90.37 53.59 90.27C53.85 90.55 54.11 90.82 54.38 91.11C54.92 91.68 55.46 92.25 55.96 92.82C56.85 93.84 57.55 94.82 58.08 95.83C58.55 96.72 59.28 97.5 59.99 98.2C60.22 98.42 60.42 98.65 60.64 98.87C61.24 99.51 61.85 100.16 62.68 100.69C62.75 100.75 62.81 100.79 62.87 100.82C62.87 100.82 65.58 102.37 66.51 102.9C66.75 103.03 67 103.16 67.31 103.19C67.39 103.21 67.48 103.21 67.58 103.21C67.82 103.21 68.16 103.17 68.4 102.99C68.59 102.86 68.68 102.68 68.67 102.5C68.66 102.28 68.5 102.07 68.22 101.9L67.44 101.41C66.74 100.97 66.02 100.52 65.29 100.1C64.53 99.66 63.73 99.17 63.15 98.55L62.48 97.84C61.86 97.17 61.29 96.57 60.75 95.96C60.59 95.79 60.47 95.59 60.34 95.38C60.26 95.26 60.19 95.14 60.11 95.02L59.59 94.25C59.08 93.5 58.58 92.74 58.02 92.06C57.64 91.59 57.19 91.13 56.79 90.72C56.46 90.39 56.11 90.04 55.81 89.68C55.07 88.82 54.37 88 53.85 87.15C52.62 85.12 50.59 83.73 47.64 82.88C44.2 81.89 40.54 80.8 37.18 79.28C35.99 78.74 35.08 78.26 34.31 77.76C31.35 75.82 29.02 73.85 27.18 71.72C26.49 70.92 25.96 70.03 25.58 69.01C25.35 68.42 25.39 67.77 25.7 66.96C26.03 66.14 26.56 65.34 27.39 64.49L27.62 64.63C28.09 64.87 28.54 65.1 28.98 65.36C31.23 66.72 33.79 67.79 36.04 68.75C37.2 69.24 38.5 69.71 39.9 70.15C40.45 70.32 41.03 70.42 41.6 70.51C41.87 70.55 42.14 70.59 42.4 70.65C42.52 70.67 42.66 70.69 42.78 70.69C43.31 70.69 43.74 70.44 43.89 70.05C44.33 68.96 44.74 67.87 45.13 66.86C45.19 66.69 45.24 66.53 45.28 66.35C46.87 66.67 48.49 66.88 50.12 66.96C51.12 67.02 53.34 67.15 53.34 67.15C54.64 67.22 55.97 67.3 57.29 67.36C59.19 67.46 60.79 67.99 62.2 69.01C63.74 70.12 65.13 71.44 66.44 73.06C66.78 73.48 67.13 73.91 67.47 74.34C68.11 75.16 68.7 75.91 69.31 76.63C70.15 77.61 71.02 78.54 71.9 79.39C72.49 79.95 73.17 80.45 73.83 80.93L74.08 81.12C74.66 81.55 75.28 81.98 75.99 82.42C76.71 82.87 77.4 83.43 78.2 84.21L78.34 84.35C79.73 85.71 81.16 87.12 82.33 88.62C83.48 90.11 84.07 91.7 84.5 93.06C84.95 94.55 84.86 96.08 84.78 97.57L84.73 98.52C84.64 100.6 84.31 102.65 83.76 104.61L83.66 104.89C83.34 106.01 83.01 107.18 82.6 108.3C82.07 109.77 81.5 111.26 80.96 112.69C80.24 114.6 79.54 116.46 78.88 118.3C78.5 119.35 78.23 120.43 77.96 121.46C77.96 121.46 77.7 122.42 77.59 122.82L77.13 124.43C76.75 125.75 76.36 127.1 76.03 128.43C75.67 129.85 75.34 131.31 75.01 132.71L74.51 134.89L74.04 136.84C73.73 138.14 73.4 139.45 73.13 140.75C72.89 141.9 72.69 143.08 72.5 144.23L72.21 145.92C72.15 146.2 72.11 146.44 72.05 146.66C71.82 147.5 71.62 148.33 71.61 149.22C71.61 149.53 71.53 149.86 71.46 150.19L71.41 150.41C70.95 152.53 70.79 154.78 70.91 157.47C70.92 157.63 70.91 157.79 70.9 157.94C70.68 157.96 70.15 158 68.97 158Z" fill="#000000" fill-opacity="1.000000" fill-rule="nonzero"/>
	<path id="Vector" d="M73.2 77.95C72.79 77.59 72.41 77.22 72.05 76.84C71.33 76.07 70.39 75.05 69.59 73.99C68.29 72.26 66.75 70.62 65.4 69.17C63.95 67.62 62.25 66.64 60.2 66.14C59.1 65.88 57.9 65.71 56.44 65.61L56.42 65.61L56.42 65.49C56.41 64.96 56.4 64.55 56.43 64.14C56.55 62.55 56.4 60.85 55.98 58.79C55.74 57.61 55.6 56.52 55.58 55.48C55.53 52.3 55.66 48.85 55.99 44.92C56.04 44.29 56.03 43.64 56.02 43.01C56.02 42.63 56.02 42.27 56.02 41.91C56.02 41.34 56.04 40.77 56.07 40.2C56.07 40.2 56.43 28.85 56.45 27.93C56.47 26.96 56.49 26 56.51 25.03C56.55 23.01 56.59 20.93 56.71 18.89C56.85 16.35 57.15 14.42 57.66 12.64C57.72 12.42 57.75 12.21 57.78 11.99C57.8 11.81 57.81 11.66 57.85 11.51C58 10.84 58.14 10.16 58.27 9.49C58.61 7.82 58.95 6.11 59.54 4.47C59.83 3.67 60.19 2.93 60.62 2.26C61.39 1.09 62.76 0.35 64.71 0.08C65.15 0.03 65.63 0 66.14 0C66.3 0 66.46 0 66.62 0.01C67.77 0.06 68.63 0.47 69.33 1.3C69.81 1.89 70.21 2.52 70.53 3.21C71.69 5.76 71.81 8.41 71.85 11.12C71.86 11.95 71.87 12.79 71.87 13.63C71.87 15.47 71.88 17.37 71.96 19.23C72.03 20.67 72.18 22.1 72.33 23.5C72.4 24.04 72.45 24.58 72.5 25.11C72.55 25.52 72.59 25.93 72.65 26.34C72.75 27.13 72.84 27.86 72.87 28.58C73.05 32.04 73.28 36.57 73.39 41.11C73.41 42.24 73.39 43.38 73.38 44.48L73.38 44.61C73.37 45.49 73.35 46.41 73.36 47.32C73.37 48.23 73.28 49.16 73.19 50.06C73.13 50.64 73.07 51.24 73.03 51.84C72.99 52.68 72.97 53.53 72.95 54.35C72.94 54.97 72.93 55.6 72.9 56.22C72.86 56.99 72.83 57.75 72.79 58.52C72.74 59.5 72.68 60.5 72.66 61.49L72.62 62.52C72.54 64.78 72.46 67.11 72.66 69.41C72.69 69.78 72.7 70.16 72.72 70.53C72.74 70.85 72.75 71.12 72.76 71.4L73.2 77.95Z" fill="#000000" fill-opacity="1.000000" fill-rule="nonzero"/>
	<path id="Vector" d="M31.63 99.31C30.69 99.31 29.71 99.17 28.61 98.88C27.87 98.69 27.2 98.3 26.57 97.68C25.4 96.55 24.62 95.27 23.92 94.05C22.82 92.14 22 90.15 21.39 87.96C21.05 86.72 20.67 85.46 20.31 84.25C19.92 82.93 19.51 81.56 19.15 80.21C18.88 79.22 18.68 78.19 18.47 77.21C18.35 76.66 18.24 76.12 18.13 75.58C17.99 74.98 17.85 74.38 17.7 73.78C17.41 72.6 17.11 71.38 16.91 70.19C16.36 66.89 16.29 64.18 16.7 61.67C16.89 60.47 17.12 59.49 17.66 58.56C18.22 57.59 19.1 56.88 20.29 56.44C20.74 56.27 21.32 56.22 21.72 56.2C22.27 56.16 22.79 56.14 23.28 56.14C25.04 56.14 26.53 56.37 27.85 56.85C28.63 57.12 29.22 57.44 29.65 57.84C30.54 58.66 31.33 59.4 32.04 60.18C32.39 60.57 32.57 61.04 32.71 61.54C32.22 61.45 31.75 61.4 31.26 61.4C30.27 61.4 29.26 61.6 28.2 62C25.99 62.84 24.6 64.22 23.94 66.24C23.76 66.8 23.57 67.46 23.52 68.12C23.43 69.05 23.79 69.91 24.2 70.78C25.05 72.6 26.64 74.05 28.18 75.45C29.86 76.96 31.67 78.32 33.56 79.49C33.68 79.56 33.73 79.61 33.72 79.8L33.71 79.97C33.64 81.37 33.58 82.82 33.54 84.25C33.5 85.22 33.48 86.19 33.46 87.16L33.44 88.47L26.54 89.59C25.92 89.69 25.29 89.79 24.68 89.92C23.8 90.09 23.43 90.58 23.65 91.26C24.06 92.49 24.57 93.56 25.2 94.53C25.96 95.71 27.06 96.72 28.54 97.63C29.74 98.37 31.12 98.47 32.31 98.47L32.79 98.47C33 98.46 33.2 98.45 33.41 98.43C33.57 98.42 33.73 98.41 33.91 98.41C34.78 98.38 35.54 98.16 36.2 97.93L36.39 98.06C35.99 98.26 35.58 98.41 35.17 98.57C34.99 98.64 34.8 98.71 34.61 98.78C33.66 99.13 32.69 99.31 31.63 99.31Z" fill="#000000" fill-opacity="1.000000" fill-rule="nonzero"/>
	<path id="Vector" d="M53.94 65.54C53.2 65.5 52.5 65.47 51.79 65.45C48.78 65.36 45.86 64.69 43.04 64.06L42.56 63.95C40.8 63.55 39.05 63.15 37.31 62.74L35.28 62.28C35.07 61.75 35.03 61.34 35.16 60.94C35.75 59.13 36.55 57.54 37.6 56.08C38.37 55.01 39.48 54.25 41 53.74C42.42 53.28 43.84 53.05 45.35 53.05C46.76 53.05 48.22 53.24 49.8 53.65C50.61 53.86 51.19 54.31 51.84 54.83L52.09 55.03C53.16 55.87 53.47 56.97 53.71 58.14C53.95 59.23 54.12 60.35 54.29 61.44L54.4 62.13C54.44 62.41 54.46 62.73 54.45 63.12C54.43 63.78 54.41 64.44 54.37 65.13L54.35 65.57L53.94 65.54Z" fill="#000000" fill-opacity="1.000000" fill-rule="nonzero"/>
	<path id="Vector" d="M42.24 98.27C41.08 98.27 40.04 98.02 39.07 97.51C37.19 96.52 36.11 95.12 35.77 93.23C35.55 92.02 35.55 90.79 35.55 89.59C35.55 88.95 35.55 88.31 35.52 87.67C35.46 86.45 35.56 85.2 35.66 83.99C35.72 83.23 35.78 82.47 35.81 81.71C35.82 81.37 35.82 81.02 35.82 80.65L36.05 80.76C36.85 81.11 37.58 81.43 38.33 81.74C41.1 82.88 43.49 83.75 46.09 84.31C47.13 84.53 48.46 84.87 49.56 85.52C50.12 85.86 50.54 86.21 50.82 86.58C50.82 86.58 51.42 87.38 51.54 87.55C51.81 87.9 51.9 88.21 51.84 88.55C51.62 89.89 51.25 91.21 50.73 92.48C50.56 92.89 50.35 93.3 50.14 93.7C49.94 94.07 49.75 94.44 49.59 94.82C49.1 95.95 47.93 96.71 46.74 97.35C45.65 97.95 44.32 98.12 43.05 98.23C42.77 98.26 42.5 98.27 42.24 98.27ZM37.28 92.35C37.27 92.64 37.26 92.91 37.31 93.19L37.34 93.41C37.42 93.96 37.51 94.53 37.78 95.08C38.25 96.02 39.1 96.65 40.26 96.9C40.78 97 41.25 97.11 41.72 97.11L42.95 97.11C43.54 97.11 44.23 97.1 44.93 97C46.17 96.82 47.17 96.2 47.98 95.11C48.77 94.07 49.24 92.89 49.4 91.62C49.54 90.58 49.69 89.54 49.83 88.62C49.94 87.86 49.65 87.55 48.68 87.4C45.47 86.88 42.24 86.61 38.93 86.36C38.81 86.35 38.69 86.35 38.59 86.35C37.66 86.35 37.5 86.89 37.42 87.19C37.2 88.02 37.31 90.97 37.26 91.38L37.28 92.35Z" fill="#000000" fill-opacity="1.000000" fill-rule="nonzero"/>
	<path id="Vector" d="M42.01 68.99C41.49 68.87 41.09 68.78 40.71 68.68C39.23 68.29 37.87 67.72 36.39 67.07L35.33 66.61C34.36 66.19 33.39 65.77 32.46 65.33C31.5 64.87 30.58 64.39 29.6 63.89L28.99 63.57C29.66 63.25 30.21 63.11 30.77 63.08C30.86 63.07 30.96 63.07 31.06 63.07C31.8 63.07 32.56 63.2 33.37 63.47C34.4 63.81 35.47 64.08 36.5 64.33L37.03 64.47C38.57 64.86 40.13 65.24 41.7 65.63L43.19 66L42.01 68.99Z" fill="#000000" fill-opacity="1.000000" fill-rule="nonzero"/>
	<path id="Vector" d="M32.41 96.72C30.89 96.72 29.74 96.28 28.99 95.43C27.9 94.17 26.77 92.82 26.09 91.36C26.47 91.28 26.82 91.21 27.19 91.15C28.98 90.88 30.77 90.63 32.57 90.37L33.43 90.25C33.42 90.55 33.42 90.79 33.44 91.03C33.49 91.85 33.56 92.8 33.67 93.75C33.75 94.51 34.08 95.27 34.71 96.12L34.98 96.51C34.67 96.61 34.32 96.66 33.91 96.69C33.55 96.72 33.16 96.72 32.65 96.72L32.41 96.72Z" fill="#000000" fill-opacity="1.000000" fill-rule="nonzero"/>
	<path id="Vector" d="M42.65 95.54C42 95.54 41.41 95.48 40.84 95.35C40.09 95.17 39.64 94.73 39.54 94.07C39.45 93.47 39.44 92.85 39.43 92.24L39.42 91.68C39.4 91.05 39.4 90.43 39.4 89.8L39.4 88.02C41.55 88.14 46.12 88.66 47.65 88.95C47.61 89.25 47.55 89.56 47.5 89.86L47.34 90.72C47.24 91.27 47.15 91.75 47.07 92.23C46.95 92.98 46.63 93.69 46.1 94.35C45.58 95.02 44.83 95.38 43.72 95.48C43.36 95.52 42.99 95.54 42.65 95.54Z" fill="#000000" fill-opacity="1.000000" fill-rule="nonzero"/>
</svg>
