<svg width="36.000000" height="25.000000" viewBox="0 0 36 25" fill="none" xmlns="http://www.w3.org/2000/svg" xmlns:xlink="http://www.w3.org/1999/xlink">
	<desc>
			Created with Pixso.
	</desc>
	<defs>
		<clipPath id="clip0_30">
			<rect id="Frame" rx="-0.500000" width="35.000000" height="24.000000" transform="translate(0.500000 0.500000)" fill="white" fill-opacity="0"/>
		</clipPath>
	</defs>
	<g clip-path="url(#clip0_30)">
		<path id="Vector" d="M4.89 10.56C4.89 11.11 4.7 11.57 4.32 11.93C4.02 12.21 3.56 12.35 2.93 12.35L2.67 12.35L2.67 8.77L2.93 8.77C3.57 8.77 4.03 8.91 4.32 9.21C4.7 9.54 4.89 9.99 4.89 10.56L4.89 10.56ZM32.64 9.5C32.64 10.06 32.3 10.35 31.64 10.35L31.34 10.35L31.34 8.7L31.65 8.7C32.31 8.7 32.64 8.97 32.64 9.5L32.64 9.5ZM5.93 10.56C5.93 9.76 5.67 9.1 5.15 8.6C4.63 8.09 3.96 7.84 3.14 7.84L1.65 7.84L1.65 13.26L3.14 13.26C3.91 13.26 4.53 13.05 5 12.64C5.3 12.39 5.54 12.07 5.7 11.71C5.86 11.35 5.94 10.95 5.93 10.56ZM6.4 13.26L7.42 13.26L7.42 7.84L6.4 7.84L6.4 13.26L6.4 13.26ZM11.4 11.62C11.4 11.18 11.3 10.85 11.08 10.61C10.87 10.37 10.48 10.14 9.9 9.92C9.6 9.82 9.39 9.71 9.29 9.61C9.23 9.57 9.19 9.51 9.16 9.45C9.13 9.38 9.12 9.31 9.12 9.24C9.12 9.07 9.19 8.92 9.33 8.81C9.49 8.69 9.68 8.63 9.87 8.64C10.17 8.64 10.45 8.78 10.7 9.08L11.23 8.36C10.82 7.97 10.27 7.75 9.7 7.76C9.24 7.76 8.85 7.91 8.54 8.21C8.39 8.35 8.27 8.52 8.19 8.71C8.11 8.89 8.07 9.1 8.07 9.31C8.07 9.68 8.17 9.99 8.35 10.21C8.54 10.43 8.88 10.63 9.35 10.8C9.74 10.94 9.98 11.05 10.06 11.11C10.26 11.24 10.36 11.43 10.36 11.66C10.36 11.77 10.34 11.87 10.3 11.96C10.26 12.05 10.21 12.14 10.14 12.21C10.06 12.28 9.98 12.34 9.88 12.38C9.78 12.42 9.68 12.43 9.57 12.43C9.07 12.43 8.7 12.19 8.46 11.71L7.81 12.36C8.27 13.06 8.87 13.41 9.6 13.41C10.14 13.41 10.57 13.24 10.9 12.91C11.24 12.58 11.4 12.15 11.4 11.62L11.4 11.62ZM15.75 13.08L15.75 11.83C15.36 12.23 14.95 12.43 14.53 12.43C14.02 12.43 13.6 12.25 13.27 11.9C12.94 11.55 12.78 11.1 12.78 10.56C12.78 10.04 12.94 9.6 13.27 9.23C13.42 9.06 13.6 8.92 13.81 8.82C14.02 8.73 14.25 8.68 14.48 8.69C14.93 8.69 15.35 8.89 15.75 9.31L15.75 8.05C15.36 7.84 14.93 7.73 14.5 7.73C14.13 7.72 13.77 7.79 13.43 7.93C13.09 8.07 12.79 8.28 12.54 8.55C12 9.1 11.73 9.77 11.73 10.56C11.73 11.35 12 12.02 12.53 12.57C12.78 12.83 13.08 13.04 13.42 13.19C13.75 13.33 14.12 13.4 14.48 13.39C14.92 13.39 15.34 13.29 15.75 13.08L15.75 13.08ZM35 22.91L35 14.34C34.32 14.77 33.57 15.23 32.74 15.7C31.91 16.18 30.67 16.82 29.03 17.61C27.34 18.42 25.62 19.16 23.88 19.85C22.09 20.55 19.92 21.28 17.35 22.03C14.79 22.79 12.17 23.43 9.48 23.95L34 23.95C34.27 23.95 34.5 23.85 34.7 23.65C34.79 23.55 34.87 23.43 34.92 23.31C34.97 23.18 35 23.05 35 22.91L35 22.91ZM21.7 10.59C21.7 9.78 21.42 9.08 20.87 8.51C20.32 7.93 19.65 7.65 18.87 7.65C18.09 7.65 17.42 7.93 16.87 8.51C16.32 9.08 16.04 9.78 16.04 10.59C16.04 11.4 16.32 12.1 16.87 12.67C17.42 13.25 18.09 13.54 18.87 13.54C19.65 13.54 20.32 13.25 20.87 12.67C21.42 12.1 21.7 11.4 21.7 10.59ZM24.07 13.41L26.32 7.84L25.21 7.84L23.81 11.49L22.42 7.84L21.31 7.84L23.53 13.41L24.07 13.41ZM26.78 13.26L29.65 13.26L29.65 12.35L27.79 12.35L27.79 10.89L29.59 10.89L29.59 9.97L27.79 9.97L27.79 8.77L29.65 8.77L29.65 7.84L26.78 7.84L26.78 13.26L26.78 13.26ZM32.89 13.26L34.14 13.26L32.5 10.98C33.29 10.81 33.68 10.3 33.68 9.45C33.68 8.94 33.52 8.55 33.2 8.26C32.88 7.98 32.42 7.84 31.84 7.84L30.32 7.84L30.32 13.26L31.34 13.26L31.34 11.1L31.48 11.1L32.89 13.26ZM36 2.18L36 22.81C36 23.42 35.8 23.94 35.39 24.36C35.21 24.56 34.98 24.73 34.73 24.83C34.48 24.94 34.21 25 33.93 25L2.06 25C1.48 25 1 24.78 0.6 24.36C0.2 23.94 0 23.42 0 22.82L0 2.18C0 1.57 0.2 1.05 0.6 0.63C0.78 0.43 1.01 0.27 1.26 0.16C1.51 0.05 1.78 -0.01 2.06 0L33.93 0C34.5 0 34.99 0.21 35.39 0.63C35.79 1.05 36 1.57 36 2.18Z" fill="#000000" fill-opacity="1.000000" fill-rule="nonzero"/>
	</g>
</svg>
