<svg width="22.000000" height="22.000000" viewBox="0 0 22 22" fill="none" xmlns="http://www.w3.org/2000/svg" xmlns:xlink="http://www.w3.org/1999/xlink">
	<desc>
			Created with Pixso.
	</desc>
	<defs/>
	<path id="Vector" d="M22 0.15L22 3.64L18 3.64C16.54 3.64 15.55 3.8 15.04 4.12C14.53 4.44 14.28 4.91 14.28 5.55L14.28 8.05L21.74 8.05L20.75 11.96L14.28 11.96L14.28 22L6.49 22L6.49 11.96L0 11.96L0 8.05L6.49 8.05L6.49 5.16C6.49 3.53 7.37 2.25 9.14 1.35C10.9 0.45 13.25 0 16.19 0C18.68 0 20.62 0.05 22 0.15Z" fill="#000000" fill-opacity="1.000000" fill-rule="nonzero"/>
</svg>
