<svg width="22.000000" height="22.000000" viewBox="0 0 22 22" fill="none" xmlns="http://www.w3.org/2000/svg" xmlns:xlink="http://www.w3.org/1999/xlink">
	<desc>
			Created with Pixso.
	</desc>
	<defs/>
	<path id="Vector" d="M14.66 11C14.66 9.98 14.3 9.12 13.59 8.4C12.87 7.69 12.01 7.33 11 7.33C9.98 7.33 9.12 7.69 8.4 8.4C7.69 9.12 7.33 9.98 7.33 11C7.33 12.01 7.69 12.87 8.4 13.59C9.12 14.3 9.98 14.66 11 14.66C12.01 14.66 12.87 14.3 13.59 13.59C14.3 12.87 14.66 12.01 14.66 11ZM16.64 11C16.64 12.56 16.09 13.89 14.99 14.99C13.89 16.09 12.56 16.64 11 16.64C9.43 16.64 8.1 16.09 7 14.99C5.9 13.89 5.35 12.56 5.35 11C5.35 9.43 5.9 8.1 7 7C8.1 5.9 9.43 5.35 11 5.35C12.56 5.35 13.89 5.9 14.99 7C16.09 8.1 16.64 9.43 16.64 11ZM18.19 5.12C18.19 5.49 18.06 5.8 17.8 6.05C17.54 6.31 17.23 6.44 16.87 6.44C16.5 6.44 16.19 6.31 15.94 6.05C15.68 5.8 15.55 5.49 15.55 5.12C15.55 4.76 15.68 4.45 15.94 4.19C16.19 3.93 16.5 3.81 16.87 3.81C17.23 3.81 17.54 3.93 17.8 4.19C18.06 4.45 18.19 4.76 18.19 5.12ZM11 1.97C10.93 1.97 10.56 1.97 9.9 1.96C9.24 1.96 8.73 1.96 8.39 1.96C8.04 1.97 7.58 1.98 7.01 2.01C6.43 2.03 5.94 2.08 5.53 2.15C5.13 2.22 4.78 2.31 4.51 2.42C4.03 2.61 3.61 2.88 3.25 3.25C2.88 3.61 2.61 4.03 2.42 4.51C2.31 4.78 2.22 5.12 2.15 5.53C2.08 5.94 2.03 6.43 2.01 7.01C1.98 7.58 1.97 8.04 1.96 8.39C1.96 8.73 1.96 9.24 1.96 9.9C1.97 10.56 1.97 10.93 1.97 11C1.97 11.06 1.97 11.43 1.96 12.09C1.96 12.75 1.96 13.26 1.96 13.6C1.97 13.95 1.98 14.41 2.01 14.98C2.03 15.56 2.08 16.05 2.15 16.46C2.22 16.87 2.31 17.21 2.42 17.48C2.61 17.96 2.88 18.38 3.25 18.74C3.61 19.11 4.03 19.38 4.51 19.57C4.78 19.68 5.13 19.77 5.53 19.84C5.94 19.91 6.43 19.96 7.01 19.98C7.58 20.01 8.04 20.02 8.39 20.03C8.73 20.03 9.24 20.03 9.9 20.03C10.56 20.02 10.93 20.02 11 20.02C11.06 20.02 11.43 20.02 12.09 20.03C12.75 20.03 13.26 20.03 13.6 20.03C13.95 20.02 14.41 20.01 14.98 19.98C15.56 19.96 16.05 19.91 16.46 19.84C16.87 19.77 17.21 19.68 17.48 19.57C17.96 19.38 18.38 19.11 18.74 18.74C19.11 18.38 19.38 17.96 19.57 17.48C19.68 17.21 19.77 16.87 19.84 16.46C19.91 16.05 19.96 15.56 19.98 14.98C20.01 14.41 20.02 13.95 20.03 13.6C20.03 13.26 20.03 12.75 20.03 12.09C20.02 11.43 20.02 11.06 20.02 11C20.02 10.93 20.02 10.56 20.03 9.9C20.03 9.24 20.03 8.73 20.03 8.39C20.02 8.04 20.01 7.58 19.98 7.01C19.96 6.43 19.91 5.94 19.84 5.53C19.77 5.12 19.68 4.78 19.57 4.51C19.38 4.03 19.11 3.61 18.74 3.25C18.38 2.88 17.96 2.61 17.48 2.42C17.21 2.31 16.87 2.22 16.46 2.15C16.05 2.08 15.56 2.03 14.98 2.01C14.41 1.98 13.95 1.97 13.6 1.96C13.26 1.96 12.75 1.96 12.09 1.96C11.43 1.97 11.06 1.97 11 1.97ZM22 11C22 13.18 21.97 14.7 21.92 15.54C21.83 17.52 21.24 19.06 20.15 20.15C19.06 21.24 17.52 21.83 15.54 21.92C14.7 21.97 13.18 22 11 22C8.81 22 7.29 21.97 6.45 21.92C4.47 21.83 2.93 21.24 1.84 20.15C0.75 19.06 0.16 17.52 0.07 15.54C0.02 14.7 0 13.18 0 11C0 8.81 0.02 7.29 0.07 6.45C0.16 4.47 0.75 2.93 1.84 1.84C2.93 0.75 4.47 0.16 6.45 0.07C7.29 0.02 8.81 0 11 0C13.18 0 14.7 0.02 15.54 0.07C17.52 0.16 19.06 0.75 20.15 1.84C21.24 2.93 21.83 4.47 21.92 6.45C21.97 7.29 22 8.81 22 11Z" fill="#000000" fill-opacity="1.000000" fill-rule="nonzero"/>
</svg>
