<svg width="36.000000" height="25.000000" viewBox="0 0 36 25" fill="none" xmlns="http://www.w3.org/2000/svg" xmlns:xlink="http://www.w3.org/1999/xlink">
	<desc>
			Created with Pixso.
	</desc>
	<defs>
		<clipPath id="clip0_32">
			<rect id="Frame" rx="-0.500000" width="35.000000" height="24.000000" transform="translate(0.500000 0.500000)" fill="white" fill-opacity="0"/>
		</clipPath>
	</defs>
	<g clip-path="url(#clip0_32)">
		<path id="Vector" d="M17.48 3.46C16.15 2.54 14.68 2.08 13.09 2.08C12.03 2.08 10.97 2.3 10 2.74C9.05 3.16 8.19 3.75 7.46 4.5C6.74 5.27 6.16 6.16 5.77 7.14C5.35 8.16 5.13 9.25 5.14 10.35C5.14 11.48 5.35 12.55 5.77 13.57C6.16 14.55 6.74 15.44 7.46 16.21C8.19 16.95 9.04 17.55 10 17.97C10.98 18.41 12.01 18.63 13.09 18.63C14.68 18.63 16.15 18.17 17.48 17.25C16.14 16.12 15.17 14.61 14.7 12.93C14.21 11.24 14.21 9.46 14.71 7.77C15.18 6.09 16.15 4.59 17.48 3.46ZM18 3.85C16.7 4.9 15.76 6.31 15.31 7.91C14.83 9.51 14.83 11.21 15.3 12.8C15.75 14.4 16.7 15.82 18 16.86C19.29 15.82 20.24 14.4 20.69 12.8C21.16 11.21 21.16 9.51 20.68 7.91C20.23 6.32 19.29 4.9 18 3.85L18 3.85ZM18.51 3.46C19.85 4.59 20.81 6.1 21.28 7.78C21.78 9.5 21.78 11.22 21.29 12.94C20.83 14.63 19.85 16.13 18.51 17.25C19.84 18.17 21.31 18.63 22.9 18.63C23.99 18.63 25.02 18.41 26 17.97C26.95 17.55 27.8 16.95 28.53 16.21C29.25 15.44 29.83 14.55 30.22 13.57C30.64 12.55 30.86 11.45 30.85 10.35C30.86 9.25 30.64 8.16 30.22 7.14C29.83 6.16 29.25 5.27 28.53 4.5C27.8 3.75 26.94 3.16 25.99 2.74C25.02 2.3 23.96 2.08 22.9 2.08C21.31 2.08 19.84 2.54 18.51 3.46ZM30.09 15.21L30.2 15.21L30.2 15.16L29.93 15.16L29.93 15.21L30.04 15.21L30.04 15.49L30.09 15.49L30.09 15.21ZM30.54 15.49L30.6 15.49L30.6 15.16L30.53 15.16L30.43 15.38L30.34 15.16L30.26 15.16L30.26 15.49L30.31 15.49L30.31 15.25L30.4 15.46L30.46 15.46L30.54 15.25L30.54 15.49ZM30.42 22.65L30.42 22.68L30.34 22.68L30.34 22.64L30.42 22.64L30.42 22.65ZM30.42 22.8L30.46 22.8L30.4 22.72L30.43 22.72L30.45 22.7C30.46 22.69 30.46 22.67 30.46 22.65C30.46 22.63 30.46 22.62 30.45 22.6L30.43 22.59L30.29 22.59L30.29 22.8L30.34 22.8L30.34 22.72L30.35 22.72L30.42 22.8ZM10.7 21.69C10.7 21.49 10.76 21.32 10.87 21.19C10.93 21.12 11 21.07 11.08 21.04C11.16 21 11.25 20.99 11.34 20.99C11.53 20.99 11.68 21.06 11.79 21.2C11.91 21.33 11.97 21.51 11.96 21.69C11.97 21.87 11.91 22.06 11.79 22.2C11.74 22.26 11.67 22.31 11.59 22.34C11.51 22.38 11.42 22.39 11.34 22.39C11.25 22.4 11.16 22.38 11.08 22.35C11 22.31 10.93 22.26 10.87 22.2C10.75 22.06 10.69 21.87 10.7 21.69ZM18.09 20.98C18.4 20.98 18.58 21.15 18.64 21.5L17.54 21.5C17.59 21.15 17.78 20.98 18.09 20.98L18.09 20.98ZM23.65 21.69C23.65 21.49 23.71 21.32 23.82 21.19C23.88 21.12 23.95 21.07 24.03 21.04C24.11 21 24.19 20.99 24.28 20.99C24.46 20.99 24.62 21.06 24.74 21.2C24.86 21.33 24.92 21.5 24.92 21.69C24.92 21.87 24.86 22.06 24.75 22.2C24.69 22.26 24.61 22.31 24.53 22.35C24.45 22.38 24.36 22.4 24.28 22.39C24.19 22.39 24.11 22.38 24.03 22.34C23.95 22.31 23.88 22.26 23.82 22.2C23.7 22.06 23.64 21.87 23.65 21.69ZM27.9 21.69C27.9 21.5 27.96 21.33 28.08 21.19C28.14 21.13 28.21 21.08 28.29 21.04C28.37 21.01 28.45 20.99 28.54 20.99C28.73 20.99 28.88 21.06 29 21.2C29.12 21.33 29.18 21.5 29.18 21.69C29.18 21.9 29.12 22.06 29 22.2C28.94 22.26 28.87 22.31 28.79 22.34C28.71 22.38 28.63 22.39 28.54 22.39C28.45 22.39 28.37 22.38 28.29 22.34C28.21 22.31 28.14 22.25 28.08 22.19C27.96 22.05 27.9 21.87 27.9 21.69ZM30.37 22.86C30.35 22.86 30.33 22.86 30.31 22.85C30.3 22.85 30.28 22.84 30.26 22.81C30.24 22.79 30.23 22.78 30.23 22.77C30.22 22.74 30.21 22.72 30.21 22.7C30.21 22.67 30.22 22.65 30.23 22.64C30.23 22.61 30.24 22.59 30.26 22.57L30.28 22.55C30.3 22.55 30.31 22.55 30.31 22.54C30.33 22.53 30.35 22.52 30.37 22.52C30.4 22.52 30.42 22.53 30.43 22.54L30.5 22.57L30.53 22.64L30.53 22.65C30.54 22.67 30.54 22.69 30.54 22.7L30.53 22.72L30.53 22.77L30.51 22.78L30.5 22.81C30.48 22.84 30.45 22.85 30.43 22.85C30.42 22.86 30.4 22.86 30.37 22.86ZM9.35 22.8L9.82 22.8L9.82 21.41C9.82 21.15 9.75 20.95 9.6 20.79C9.45 20.63 9.24 20.55 8.98 20.54C8.65 20.54 8.4 20.66 8.25 20.93C8.1 20.67 7.87 20.54 7.54 20.54C7.42 20.53 7.3 20.56 7.2 20.62C7.09 20.68 7 20.76 6.93 20.86L6.93 20.6L6.47 20.6L6.47 22.8L6.93 22.8L6.93 21.58C6.93 21.19 7.1 20.99 7.45 20.99C7.76 20.99 7.92 21.19 7.92 21.58L7.92 22.8L8.37 22.8L8.37 21.58C8.37 21.19 8.54 20.99 8.89 20.99C9.2 20.99 9.35 21.19 9.35 21.58L9.35 22.8L9.35 22.8ZM11.95 22.8L12.4 22.8L12.4 20.6L11.95 20.6L11.95 20.86C11.87 20.76 11.77 20.67 11.65 20.62C11.53 20.56 11.41 20.53 11.28 20.54C11.13 20.53 10.99 20.56 10.87 20.62C10.74 20.67 10.62 20.76 10.53 20.86C10.33 21.08 10.23 21.35 10.23 21.69C10.23 22.03 10.33 22.3 10.53 22.52C10.62 22.63 10.74 22.71 10.87 22.77C10.99 22.82 11.13 22.85 11.28 22.85C11.57 22.85 11.79 22.74 11.95 22.52L11.95 22.8ZM14.73 22.13C14.73 21.76 14.49 21.54 14 21.48L13.78 21.45C13.54 21.4 13.42 21.33 13.42 21.22C13.42 21.06 13.55 20.98 13.81 20.98C14.05 20.98 14.27 21.04 14.48 21.15L14.67 20.76C14.44 20.61 14.15 20.54 13.81 20.54C13.54 20.54 13.32 20.6 13.17 20.73C13.09 20.79 13.03 20.87 12.99 20.96C12.95 21.05 12.93 21.15 12.93 21.25C12.93 21.61 13.18 21.82 13.67 21.89L13.87 21.92C14.12 21.96 14.25 22.04 14.25 22.15C14.25 22.33 14.08 22.42 13.76 22.42C13.5 22.42 13.27 22.35 13.06 22.2L12.85 22.57C13.11 22.75 13.42 22.85 13.76 22.85C14.06 22.85 14.3 22.78 14.47 22.65C14.55 22.59 14.62 22.51 14.66 22.42C14.71 22.33 14.73 22.23 14.73 22.13L14.73 22.13ZM16.76 22.68L16.64 22.28C16.51 22.35 16.37 22.39 16.23 22.39C16.03 22.39 15.93 22.27 15.93 22.03L15.93 21.04L16.68 21.04L16.68 20.6L15.93 20.6L15.93 19.93L15.46 19.93L15.46 20.6L15.03 20.6L15.03 21.04L15.46 21.04L15.46 22.03C15.46 22.58 15.71 22.85 16.2 22.85C16.4 22.85 16.59 22.8 16.76 22.68ZM18.1 20.54C17.96 20.53 17.82 20.56 17.69 20.62C17.56 20.67 17.45 20.76 17.35 20.86C17.16 21.08 17.06 21.35 17.06 21.69C17.06 22.04 17.16 22.32 17.36 22.53C17.57 22.74 17.82 22.85 18.14 22.85C18.48 22.85 18.77 22.74 19 22.54L18.78 22.18C18.61 22.33 18.39 22.42 18.17 22.42C17.81 22.42 17.6 22.24 17.53 21.89L19.1 21.89L19.1 21.69C19.1 21.34 19.01 21.06 18.82 20.85C18.74 20.75 18.62 20.67 18.5 20.61C18.38 20.56 18.24 20.53 18.1 20.54ZM20.59 20.54C20.48 20.53 20.37 20.56 20.27 20.62C20.17 20.68 20.09 20.76 20.04 20.86L20.04 20.6L19.57 20.6L19.57 22.8L20.04 22.8L20.04 21.56C20.04 21.18 20.19 20.99 20.5 20.99C20.59 20.99 20.69 21.01 20.78 21.06L20.92 20.6C20.81 20.56 20.7 20.53 20.59 20.54ZM21.06 21.69C21.06 22.03 21.16 22.3 21.36 22.52C21.57 22.74 21.84 22.85 22.18 22.85C22.49 22.85 22.74 22.76 22.93 22.59L22.71 22.2C22.53 22.34 22.34 22.4 22.17 22.39C22.08 22.39 21.99 22.38 21.92 22.34C21.84 22.31 21.76 22.26 21.71 22.2C21.58 22.06 21.52 21.88 21.53 21.69C21.53 21.49 21.59 21.32 21.71 21.19C21.76 21.12 21.84 21.07 21.91 21.04C21.99 21 22.08 20.99 22.17 20.99C22.37 20.99 22.56 21.06 22.71 21.19L22.93 20.8C22.72 20.62 22.46 20.53 22.18 20.54C21.84 20.54 21.57 20.64 21.36 20.86C21.16 21.08 21.06 21.35 21.06 21.69ZM24.89 22.8L25.35 22.8L25.35 20.6L24.89 20.6L24.89 20.86C24.81 20.75 24.71 20.67 24.6 20.61C24.48 20.56 24.36 20.53 24.23 20.54C24.09 20.53 23.95 20.56 23.82 20.62C23.68 20.67 23.57 20.76 23.47 20.86C23.27 21.08 23.17 21.35 23.17 21.69C23.17 22.03 23.27 22.3 23.47 22.52C23.57 22.63 23.68 22.71 23.82 22.77C23.95 22.82 24.09 22.85 24.23 22.85C24.52 22.85 24.74 22.74 24.89 22.52L24.89 22.8ZM26.96 20.54C26.85 20.53 26.74 20.56 26.64 20.62C26.55 20.68 26.47 20.76 26.42 20.86L26.42 20.6L25.96 20.6L25.96 22.8L26.42 22.8L26.42 21.56C26.42 21.18 26.57 20.99 26.87 20.99C26.97 20.99 27.06 21.01 27.15 21.06L27.29 20.6C27.19 20.55 27.08 20.53 26.96 20.54ZM29.15 22.8L29.6 22.8L29.6 19.7L29.15 19.7L29.15 20.86C29 20.64 28.77 20.54 28.48 20.54C28.34 20.53 28.2 20.56 28.07 20.62C27.94 20.68 27.83 20.76 27.74 20.87C27.53 21.09 27.42 21.39 27.43 21.69C27.43 22.02 27.53 22.29 27.74 22.51C27.94 22.74 28.19 22.85 28.48 22.85C28.78 22.85 29.01 22.74 29.15 22.52L29.15 22.8ZM30.37 22.47L30.34 22.49L30.29 22.49C30.27 22.5 30.25 22.52 30.23 22.54C30.2 22.55 30.18 22.57 30.18 22.6C30.17 22.63 30.17 22.67 30.17 22.7C30.17 22.73 30.17 22.76 30.18 22.78C30.18 22.8 30.2 22.83 30.23 22.85C30.25 22.87 30.27 22.88 30.29 22.89C30.31 22.91 30.34 22.91 30.37 22.91C30.4 22.91 30.43 22.91 30.46 22.89C30.46 22.89 30.47 22.87 30.5 22.86L30.53 22.85C30.54 22.83 30.56 22.8 30.57 22.78C30.58 22.76 30.59 22.73 30.59 22.7C30.59 22.67 30.59 22.63 30.57 22.6C30.56 22.58 30.54 22.56 30.53 22.54C30.53 22.53 30.52 22.52 30.5 22.5L30.46 22.49C30.45 22.49 30.43 22.48 30.42 22.48C30.4 22.48 30.39 22.47 30.37 22.47ZM36 2.08L36 22.91C36 23.48 35.8 23.96 35.4 24.38C35 24.79 34.54 25 34 25L2 25C1.45 25 0.98 24.79 0.59 24.38C0.4 24.18 0.25 23.96 0.15 23.7C0.04 23.45 -0.01 23.18 0 22.91L0 2.08C0 1.52 0.19 1.03 0.59 0.61C0.98 0.2 1.45 0 2 0L34 0C34.54 0 35 0.2 35.4 0.61C35.8 1.03 36 1.51 36 2.08Z" fill="#000000" fill-opacity="1.000000" fill-rule="nonzero"/>
	</g>
</svg>
