<svg width="36.000122" height="25.000977" viewBox="0 0 36.0001 25.001" fill="none" xmlns="http://www.w3.org/2000/svg" xmlns:xlink="http://www.w3.org/1999/xlink">
	<desc>
			Created with Pixso.
	</desc>
	<defs/>
	<path id="Vector" d="M11.64 12.66C11.64 13.06 11.5 13.39 11.24 13.66C11.11 13.79 10.96 13.89 10.79 13.96C10.62 14.03 10.44 14.06 10.26 14.06C9.96 14.06 9.72 13.97 9.53 13.8C9.35 13.62 9.26 13.39 9.26 13.08C9.26 12.68 9.39 12.34 9.65 12.06C9.91 11.79 10.24 11.65 10.62 11.65C10.91 11.65 11.15 11.74 11.35 11.92C11.54 12.1 11.64 12.34 11.64 12.66L11.64 12.66ZM23.9 10.23C23.9 10.69 23.79 11 23.56 11.16C23.33 11.32 22.99 11.41 22.53 11.41L22.03 11.42L22.29 9.68C22.31 9.56 22.38 9.5 22.5 9.5L22.78 9.5C23.01 9.5 23.19 9.51 23.32 9.53C23.47 9.56 23.61 9.63 23.71 9.74C23.84 9.85 23.9 10.02 23.9 10.23ZM29.39 12.66C29.39 13.05 29.25 13.38 28.99 13.65C28.86 13.78 28.72 13.88 28.55 13.96C28.38 14.02 28.21 14.06 28.03 14.06C27.72 14.06 27.48 13.97 27.29 13.8C27.1 13.62 27.01 13.39 27.01 13.08C27.01 12.68 27.14 12.34 27.4 12.06C27.66 11.79 27.99 11.65 28.37 11.65C28.66 11.65 28.9 11.74 29.1 11.92C29.29 12.1 29.39 12.34 29.39 12.66L29.39 12.66ZM8.01 9.87C8.01 9.24 7.81 8.77 7.41 8.48C7.01 8.2 6.49 8.05 5.84 8.05L3.34 8.05C3.14 8.05 3.03 8.16 3.01 8.36L2 15C1.99 15.03 1.99 15.06 2 15.1C2.01 15.13 2.02 15.16 2.04 15.18C2.06 15.21 2.08 15.23 2.11 15.24C2.14 15.25 2.17 15.26 2.2 15.26L3.39 15.26C3.59 15.26 3.71 15.16 3.73 14.95L4.01 13.16C4.02 13.08 4.06 13 4.12 12.95C4.19 12.89 4.27 12.86 4.35 12.85C4.45 12.83 4.54 12.82 4.62 12.82C4.7 12.82 4.8 12.83 4.92 12.84C5.03 12.85 5.1 12.85 5.14 12.85C6.03 12.85 6.74 12.59 7.25 12.06C7.76 11.54 8.01 10.81 8.01 9.87ZM12.84 14.95L13.48 10.71C13.48 10.67 13.48 10.64 13.48 10.61C13.47 10.58 13.45 10.55 13.43 10.52C13.42 10.5 13.39 10.48 13.36 10.47C13.34 10.45 13.31 10.44 13.28 10.45L12.09 10.45C11.94 10.45 11.85 10.62 11.82 10.98C11.54 10.55 11.05 10.33 10.34 10.33C9.59 10.33 8.95 10.62 8.43 11.21C7.91 11.77 7.62 12.51 7.64 13.28C7.64 13.92 7.82 14.43 8.18 14.81C8.54 15.19 9.02 15.38 9.62 15.38C9.91 15.38 10.21 15.31 10.53 15.18C10.81 15.07 11.07 14.89 11.28 14.66C11.24 14.79 11.21 14.9 11.21 15C11.21 15.18 11.28 15.26 11.42 15.26L12.5 15.26C12.69 15.26 12.81 15.16 12.84 14.95L12.84 14.95ZM19.82 10.67C19.82 10.62 19.8 10.56 19.76 10.52C19.72 10.47 19.67 10.44 19.62 10.44L18.42 10.44C18.3 10.44 18.21 10.5 18.14 10.61L16.48 13.15L15.79 10.71C15.74 10.53 15.63 10.45 15.45 10.45L14.28 10.45C14.22 10.45 14.18 10.47 14.14 10.52C14.1 10.56 14.07 10.61 14.07 10.67C14.07 10.69 14.18 11.01 14.38 11.63L15.03 13.63C15.27 14.35 15.39 14.73 15.4 14.77C14.55 15.99 14.12 16.64 14.12 16.73C14.12 16.87 14.19 16.94 14.32 16.94L15.53 16.94C15.64 16.94 15.74 16.88 15.81 16.78L19.79 10.79C19.81 10.76 19.82 10.73 19.82 10.67L19.82 10.67ZM25.76 9.87C25.76 9.24 25.56 8.77 25.16 8.48C24.76 8.2 24.24 8.05 23.59 8.05L21.1 8.05C20.9 8.05 20.78 8.16 20.76 8.36L19.75 15C19.74 15.03 19.74 15.06 19.75 15.1C19.76 15.13 19.77 15.16 19.79 15.18C19.81 15.21 19.83 15.23 19.86 15.24C19.89 15.25 19.92 15.26 19.95 15.26L21.23 15.26C21.35 15.26 21.44 15.19 21.48 15.05L21.76 13.16C21.77 13.08 21.81 13 21.87 12.95C21.94 12.89 22.02 12.86 22.1 12.85C22.2 12.83 22.29 12.82 22.37 12.82C22.45 12.82 22.55 12.83 22.67 12.84C22.78 12.85 22.85 12.85 22.89 12.85C23.78 12.85 24.49 12.59 25 12.06C25.51 11.54 25.76 10.81 25.76 9.87ZM30.59 14.95L31.23 10.71C31.23 10.67 31.23 10.64 31.23 10.61C31.22 10.58 31.2 10.55 31.18 10.52C31.16 10.5 31.14 10.48 31.11 10.47C31.09 10.45 31.06 10.44 31.03 10.45L29.84 10.45C29.69 10.45 29.6 10.62 29.57 10.98C29.3 10.55 28.81 10.33 28.09 10.33C27.34 10.33 26.7 10.62 26.18 11.21C25.66 11.77 25.37 12.51 25.39 13.28C25.39 13.92 25.57 14.43 25.93 14.81C26.29 15.19 26.77 15.38 27.37 15.38C27.67 15.38 27.98 15.31 28.29 15.18C28.6 15.05 28.85 14.88 29.03 14.66C29.03 14.67 29.02 14.72 29 14.81C28.98 14.87 28.97 14.94 28.96 15C28.96 15.18 29.03 15.26 29.17 15.26L30.25 15.26C30.44 15.26 30.56 15.16 30.59 14.95L30.59 14.95ZM34 8.29L34 8.28C34 8.13 33.93 8.05 33.79 8.05L32.64 8.05C32.52 8.05 32.45 8.11 32.43 8.23L31.42 15L31.4 15.03C31.4 15.09 31.42 15.14 31.46 15.19C31.48 15.21 31.51 15.23 31.53 15.24C31.56 15.26 31.59 15.26 31.62 15.26L32.65 15.26C32.85 15.26 32.96 15.16 32.98 14.95L34 8.3L34 8.29ZM6.12 10.48C6.07 10.85 5.93 11.1 5.71 11.23C5.5 11.34 5.18 11.4 4.78 11.4L4.26 11.42L4.53 9.68C4.55 9.56 4.62 9.5 4.73 9.5L5.03 9.5C5.44 9.5 5.75 9.56 5.93 9.69C6.12 9.81 6.18 10.07 6.12 10.48L6.12 10.48ZM36 2.08L36 22.91C36 23.48 35.8 23.97 35.4 24.38C35.01 24.79 34.54 25 34 25L2 25C1.45 25 0.99 24.79 0.59 24.38C0.4 24.18 0.25 23.96 0.14 23.7C0.04 23.45 -0.01 23.18 0 22.91L0 2.08C0 1.52 0.19 1.03 0.59 0.61C0.99 0.2 1.45 0 2 0L34 0C34.54 0 35.01 0.2 35.4 0.61C35.8 1.03 36 1.51 36 2.08L36 2.08Z" fill="#000000" fill-opacity="1.000000" fill-rule="nonzero"/>
</svg>
