<svg width="36.000000" height="25.000000" viewBox="0 0 36 25" fill="none" xmlns="http://www.w3.org/2000/svg" xmlns:xlink="http://www.w3.org/1999/xlink">
	<desc>
			Created with Pixso.
	</desc>
	<defs>
		<clipPath id="clip0_28">
			<rect id="Frame" rx="-0.500000" width="35.000000" height="24.000000" transform="translate(0.500000 0.500000)" fill="white" fill-opacity="0"/>
		</clipPath>
	</defs>
	<g clip-path="url(#clip0_28)">
		<path id="Vector" d="M30.86 14.02L28.7 14.02C28.84 13.62 29.19 12.65 29.73 11.11L29.78 10.97C29.82 10.86 29.87 10.72 29.93 10.54C29.98 10.4 30.03 10.26 30.07 10.12L30.26 11.01L30.85 14.02L30.86 14.02ZM8.29 12.97L7.39 8.17C7.27 7.58 6.88 7.29 6.21 7.29L2.03 7.29L2 7.5C5.23 8.36 7.33 10.18 8.29 12.97L8.29 12.97ZM11.09 7.29L8.56 14.41L8.29 12.97C8.02 12.21 7.58 11.5 6.96 10.86C6.35 10.21 5.67 9.73 4.92 9.42L7.03 17.72L9.76 17.72L13.84 7.29L11.09 7.29L11.09 7.29ZM13.26 17.74L15.85 17.74L17.48 7.29L14.89 7.29L13.26 17.74ZM25.26 7.55C24.52 7.25 23.73 7.1 22.93 7.11C21.65 7.11 20.6 7.43 19.79 8.07C18.98 8.71 18.57 9.54 18.56 10.56C18.55 11.66 19.3 12.61 20.82 13.39C21.32 13.64 21.67 13.86 21.87 14.06C22.07 14.25 22.17 14.46 22.17 14.69C22.17 15.02 22.01 15.27 21.7 15.44C21.39 15.62 21.03 15.7 20.62 15.7C19.72 15.7 18.91 15.52 18.18 15.16L17.84 14.99L17.48 17.33C18.25 17.7 19.21 17.88 20.37 17.88C21.72 17.89 22.81 17.57 23.63 16.92C24.45 16.27 24.86 15.4 24.89 14.32C24.89 13.17 24.16 12.22 22.7 11.49C22.19 11.22 21.82 10.99 21.59 10.8C21.36 10.62 21.24 10.41 21.24 10.18C21.24 9.95 21.37 9.74 21.63 9.56C21.88 9.38 22.25 9.29 22.73 9.29C23.46 9.28 24.1 9.41 24.67 9.68L24.9 9.81L25.26 7.55ZM31.9 7.29L29.9 7.29C29.22 7.29 28.77 7.58 28.54 8.17L24.7 17.74L27.42 17.74L27.96 16.17L31.28 16.17C31.33 16.41 31.43 16.93 31.59 17.74L34 17.74L31.9 7.29L31.9 7.29ZM36 2.08L36 22.91C36 23.48 35.8 23.96 35.4 24.38C35 24.79 34.54 25 34 25L2 25C1.45 25 0.98 24.79 0.59 24.38C0.4 24.18 0.25 23.96 0.15 23.7C0.04 23.45 -0.01 23.18 0 22.91L0 2.08C0 1.52 0.19 1.03 0.59 0.61C0.98 0.2 1.45 0 2 0L34 0C34.54 0 35 0.2 35.4 0.61C35.8 1.03 36 1.51 36 2.08Z" fill="#000000" fill-opacity="1.000000" fill-rule="nonzero"/>
	</g>
</svg>
